<?xml version="1.0" standalone="no"?>
<!DOCTYPE svg PUBLIC "-//W3C//DTD SVG 20010904//EN"
 "http://www.w3.org/TR/2001/REC-SVG-20010904/DTD/svg10.dtd">
<svg version="1.0" xmlns="http://www.w3.org/2000/svg"
 width="24" height="19" viewBox="0 0 4875.000000 3917.000000"
 preserveAspectRatio="xMidYMid meet">

<g transform="translate(0.000000,3917.000000) scale(0.100000,-0.100000)"
fill="#000000" stroke="none">
<path d="M8605 38833 c-262 -15 -497 -50 -720 -107 -878 -221 -1635 -756
-2144 -1516 -323 -481 -517 -1009 -593 -1610 -11 -87 -13 -2329 -13 -12880 l0
-12775 19245 0 19245 0 0 12770 c0 12309 -1 12775 -18 12910 -57 436 -173 817
-363 1196 -182 363 -384 640 -688 945 -206 205 -334 312 -556 459 -497 331
-997 512 -1650 597 -75 9 -3471 12 -15895 13 -8690 1 -15822 0 -15850 -2z
m30359 -4163 c264 -67 466 -286 512 -555 12 -68 14 -1569 11 -9770 -2 -9113
-3 -9693 -19 -9745 -10 -30 -36 -93 -59 -140 -34 -68 -59 -102 -128 -170 -95
-94 -174 -142 -301 -182 l-75 -23 -14520 0 c-12287 0 -14528 2 -14575 14 -69
17 -184 69 -244 110 -112 78 -213 213 -263 356 l-28 80 -3 9705 c-2 8778 -1
9713 13 9785 10 50 33 116 62 175 86 175 252 309 445 360 72 19 347 19 14584
19 14410 1 14511 1 14588 -19z"/>
<path d="M10660 24390 l0 -8910 13720 0 13720 0 0 8910 0 8910 -13720 0
-13720 0 0 -8910z m9890 5565 c108 -18 241 -60 332 -106 172 -86 210 -119 744
-653 419 -419 521 -526 566 -596 146 -223 208 -429 208 -685 0 -251 -63 -459
-207 -679 -35 -55 -363 -388 -1432 -1458 l-1386 -1388 1381 -1382 c1450 -1453
1432 -1434 1521 -1613 95 -190 127 -345 120 -580 -5 -180 -28 -292 -91 -436
-84 -194 -97 -210 -671 -785 -396 -397 -549 -544 -605 -581 -212 -141 -424
-206 -675 -205 -198 0 -358 34 -519 112 -196 94 -79 -19 -2499 2399 -1471
1469 -2281 2286 -2323 2341 -78 101 -164 272 -198 391 -79 276 -57 580 60 837
91 199 -25 78 2431 2539 2152 2155 2273 2275 2371 2339 266 173 566 238 872
189z m8107 -9 c95 -21 180 -50 268 -91 186 -89 75 18 2499 -2403 1457 -1456
2290 -2296 2328 -2347 257 -341 309 -807 136 -1202 -96 -222 64 -53 -2437
-2554 -1794 -1794 -2292 -2287 -2354 -2328 -325 -220 -722 -275 -1088 -150
-89 30 -227 102 -306 160 -164 119 -982 936 -1112 1109 -74 99 -133 213 -175
341 -47 142 -59 238 -53 427 5 189 32 302 107 459 97 204 52 156 1534 1641
l1381 1382 -1386 1388 c-1508 1509 -1450 1447 -1540 1652 -69 155 -91 260 -96
455 -4 147 -2 184 17 275 34 169 108 334 213 480 62 85 989 1012 1087 1086
151 114 339 197 521 229 106 18 354 14 456 -9z"/>
<path d="M1406 7599 c-408 -53 -769 -311 -954 -684 -46 -93 -94 -239 -113
-345 -20 -105 -20 -1604 -1 -1795 49 -491 142 -896 302 -1320 433 -1143 1319
-2107 2425 -2641 525 -253 1022 -394 1625 -461 159 -17 840 -18 19710 -18
l19545 0 184 23 c365 45 661 112 991 222 1168 388 2145 1212 2740 2309 284
523 473 1126 545 1741 27 237 37 602 32 1256 -4 601 -5 633 -26 727 -110 496
-463 851 -966 970 l-90 22 -9182 2 c-7925 3 -9183 1 -9196 -11 -9 -10 -16 -51
-21 -127 -26 -428 -157 -852 -367 -1192 -326 -525 -859 -887 -1495 -1016 -257
-53 -171 -51 -2824 -51 -1649 0 -2494 3 -2550 10 -526 65 -1020 312 -1421 710
-210 209 -367 420 -498 671 -149 287 -228 565 -247 874 -4 61 -11 116 -17 123
-7 9 -1825 12 -9036 11 -5142 -1 -9056 -5 -9095 -10z m17520 -546 c54 -29 117
-101 132 -151 7 -22 12 -61 12 -88 0 -64 31 -191 70 -283 107 -260 369 -603
675 -884 339 -312 665 -538 1050 -727 221 -109 392 -175 590 -225 270 -69 81
-65 2798 -65 2157 0 2470 2 2574 15 471 62 961 272 1398 600 604 453 982 1018
1034 1546 14 142 46 202 140 257 l46 27 8730 3 c6150 2 8758 0 8825 -8 140
-16 213 -36 329 -92 184 -89 311 -240 380 -454 58 -179 63 -243 68 -981 7
-942 -10 -1170 -117 -1608 -138 -562 -396 -1078 -767 -1534 -122 -150 -404
-428 -563 -555 -383 -307 -821 -546 -1298 -710 -371 -127 -699 -197 -1207
-258 -140 -17 -38577 -25 -38860 -8 -1736 102 -3063 958 -3665 2365 -170 397
-276 855 -310 1335 -13 197 -13 1346 1 1446 53 386 320 730 706 915 143 68
361 128 518 142 22 2 3782 3 8355 3 l8315 -1 41 -22z"/>
<path d="M2250 6549 c-299 -35 -562 -194 -673 -407 -73 -140 -71 -117 -75
-722 -5 -731 10 -977 79 -1321 145 -726 514 -1366 1054 -1828 585 -501 1317
-785 2250 -873 115 -11 3580 -13 19440 -13 18585 0 19306 1 19470 18 756 81
1390 295 1933 654 790 521 1306 1304 1472 2232 50 284 54 356 51 1131 -2 744
-5 827 -43 948 -28 92 -70 133 -168 164 l-75 23 -8604 0 -8604 0 -23 -95 c-36
-148 -91 -291 -176 -462 -304 -607 -894 -1175 -1588 -1527 -96 -49 -219 -107
-273 -130 -136 -56 -379 -134 -517 -165 -279 -62 -79 -57 -2730 -69 -2551 -11
-2677 -9 -2910 32 -703 125 -1484 554 -2129 1167 -382 363 -696 812 -802 1148
l-34 106 -8125 -1 c-4517 -1 -8158 -5 -8200 -10z"/>
</g>
</svg>
