<?xml version="1.0" encoding="UTF-8"?>
<!DOCTYPE svg PUBLIC "-//W3C//DTD SVG 1.1//EN" "http://www.w3.org/Graphics/SVG/1.1/DTD/svg11.dtd">
<!-- Creator: CorelDRAW -->
<svg xmlns="http://www.w3.org/2000/svg" xml:space="preserve" width="52px" height="42px" version="1.1" style="shape-rendering:geometricPrecision; text-rendering:geometricPrecision; image-rendering:optimizeQuality; fill-rule:evenodd; clip-rule:evenodd"
viewBox="0 0 52 42"
 xmlns:xlink="http://www.w3.org/1999/xlink"
 xmlns:xodm="http://www.corel.com/coreldraw/odm/2003">
 <defs>
  <style type="text/css">
   <![CDATA[
    .str0 {stroke:black;stroke-width:1.67;stroke-linecap:round;stroke-linejoin:round;stroke-miterlimit:22.9256}
    .fil0 {fill:none;fill-rule:nonzero}
   ]]>
  </style>
 </defs>
 <g id="Camada_x0020_1">
  <metadata id="CorelCorpID_0Corel-Layer"/>
  <path class="fil0 str0" d="M21.02 21.49c0.49,0.49 1.28,0.49 1.77,0l0.89 -0.88c0.48,-0.49 0.48,-1.28 0,-1.77l-2.8 -2.79 2.79 -2.79c0.49,-0.49 0.49,-1.28 0,-1.77l-0.88 -0.88c-0.49,-0.49 -1.28,-0.49 -1.77,0l-4.56 4.55c-0.48,0.49 -0.48,1.28 0,1.77l4.56 4.56zm7.87 -0.49l0.52 0.49c0.49,0.49 1.28,0.49 1.77,0l4.55 -4.56c0.49,-0.49 0.49,-1.28 0,-1.77l-4.55 -4.55c-0.49,-0.49 -1.28,-0.49 -1.77,0l-0.89 0.88c-0.48,0.49 -0.48,1.28 0,1.77l2.79 2.79 -2.79 2.79c-0.48,0.49 -0.48,1.28 0,1.77l0.37 0.39zm20.96 12.55l-18.94 0c-0.06,1.54 -1.15,2.5 -2.56,2.5l-4.75 0c-1.46,0 -2.58,-1.37 -2.56,-2.5l-18.69 0c-0.69,0 -1.25,0.56 -1.25,1.25l0 1.25c0,2.75 2.25,5 5,5l40 0c2.75,0 5,-2.25 5,-5l0 -1.25c0,-0.69 -0.56,-1.25 -1.25,-1.25l0 0zm-3.75 -28.75c0,-2.06 -1.69,-3.75 -3.75,-3.75l-32.5 0c-2.06,0 -3.75,1.69 -3.75,3.75l0 26.25 40 0 0 -26.25zm-5 21.25l-30 0 0 -20 30 0 0 20z"/>
 </g>
</svg>
